<?xml version="1.0" encoding="utf-8"?>
<svg xmlns="http://www.w3.org/2000/svg" fill="none" preserveAspectRatio="xMidYMid meet" width="28" height="28" viewBox="0 0 20.125 20.125">
<path d="M19.6875 0H11.375C11.1344 0 10.9375 0.196875 10.9375 0.4375V8.75C10.9375 8.99063 11.1344 9.1875 11.375 9.1875H19.6875C19.9281 9.1875 20.125 8.99063 20.125 8.75V0.4375C20.125 0.196875 19.9281 0 19.6875 0ZM19.6875 10.9375H11.375C11.1344 10.9375 10.9375 11.1344 10.9375 11.375V19.6875C10.9375 19.9281 11.1344 20.125 11.375 20.125H19.6875C19.9281 20.125 20.125 19.9281 20.125 19.6875V11.375C20.125 11.1344 19.9281 10.9375 19.6875 10.9375ZM8.75 0H0.4375C0.196875 0 0 0.196875 0 0.4375V8.75C0 8.99063 0.196875 9.1875 0.4375 9.1875H8.75C8.99063 9.1875 9.1875 8.99063 9.1875 8.75V0.4375C9.1875 0.196875 8.99063 0 8.75 0ZM8.75 10.9375H0.4375C0.196875 10.9375 0 11.1344 0 11.375V19.6875C0 19.9281 0.196875 20.125 0.4375 20.125H8.75C8.99063 20.125 9.1875 19.9281 9.1875 19.6875V11.375C9.1875 11.1344 8.99063 10.9375 8.75 10.9375Z" fill="var(--fill-0, #212529)" id="Vector"/>
</svg>