<?xml version="1.0" encoding="utf-8"?>
<svg xmlns="http://www.w3.org/2000/svg" fill="none" preserveAspectRatio="xMidYMid meet" width="28" height="28" viewBox="0 0 21.875 21.875">
<path d="M21 0H0.875C0.391016 0 0 0.391016 0 0.875V21C0 21.484 0.391016 21.875 0.875 21.875H21C21.484 21.875 21.875 21.484 21.875 21V0.875C21.875 0.391016 21.484 0 21 0ZM16.7891 12.9527C16.7891 14.4648 15.5668 15.6898 14.0629 15.6898H8.43828V17.15C8.43828 17.3059 8.26055 17.3906 8.14023 17.2949L5.15703 14.9516C5.06133 14.8777 5.06133 14.7328 5.15703 14.659L8.14023 12.3156C8.26055 12.2199 8.43828 12.3074 8.43828 12.4605V13.9207H14.0629C14.5988 13.9207 15.0336 13.4832 15.0336 12.9473V10.7898C15.0336 10.6887 15.1156 10.6039 15.2195 10.6039H16.6059C16.707 10.6039 16.7918 10.6859 16.7918 10.7898V12.9527H16.7891ZM16.718 7.21328L13.7348 9.55664C13.6145 9.65234 13.4367 9.56484 13.4367 9.41172V7.95156H7.81211C7.27617 7.95156 6.84141 8.38906 6.84141 8.925V11.0824C6.84141 11.1836 6.75937 11.2684 6.65547 11.2684H5.26914C5.16797 11.2684 5.0832 11.1863 5.0832 11.0824V8.925C5.0832 7.41289 6.30547 6.18789 7.80938 6.18789H13.434V4.72773C13.434 4.57187 13.6117 4.48711 13.732 4.58281L16.7152 6.92617C16.8137 6.99453 16.8137 7.13945 16.718 7.21328Z" fill="var(--fill-0, #212529)" id="Vector"/>
</svg>