<?xml version="1.0" encoding="utf-8"?>
<svg xmlns="http://www.w3.org/2000/svg" fill="none" preserveAspectRatio="xMidYMid meet" width="28" height="28" viewBox="0 0 19.25 21.875">
<path d="M18.375 9.625H16.5156V3.5C16.5156 1.5668 14.9488 0 13.0156 0H6.23438C4.30117 0 2.73438 1.5668 2.73438 3.5V9.625H0.875C0.391016 9.625 0 10.016 0 10.5V21C0 21.484 0.391016 21.875 0.875 21.875H18.375C18.859 21.875 19.25 21.484 19.25 21V10.5C19.25 10.016 18.859 9.625 18.375 9.625ZM10.3906 16.1055V17.5547C10.3906 17.675 10.2922 17.7734 10.1719 17.7734H9.07812C8.95781 17.7734 8.85938 17.675 8.85938 17.5547V16.1055C8.63366 15.9434 8.46519 15.7139 8.37821 15.45C8.29122 15.1861 8.29022 14.9014 8.37534 14.6369C8.46046 14.3724 8.62731 14.1418 8.85187 13.9781C9.07644 13.8145 9.34714 13.7263 9.625 13.7263C9.90286 13.7263 10.1736 13.8145 10.3981 13.9781C10.6227 14.1418 10.7895 14.3724 10.8747 14.6369C10.9598 14.9014 10.9588 15.1861 10.8718 15.45C10.7848 15.7139 10.6163 15.9434 10.3906 16.1055ZM14.5469 9.625H4.70312V3.5C4.70312 2.65508 5.38945 1.96875 6.23438 1.96875H13.0156C13.8605 1.96875 14.5469 2.65508 14.5469 3.5V9.625Z" fill="var(--fill-0, #212529)" id="Vector"/>
</svg>