<?xml version="1.0" encoding="utf-8"?>
<svg xmlns="http://www.w3.org/2000/svg" fill="none" preserveAspectRatio="xMidYMid meet" width="28" height="28" viewBox="0 0 20.9557 20.9435">
<path d="M20.0334 3.27803C20.0252 3.26982 18.3627 4.91318 15.0541 8.21631L12.7326 5.89482L17.6791 0.948339C15.076 -0.618458 11.7318 -0.216506 9.56348 1.95185C8.73461 2.78025 8.13813 3.81202 7.83386 4.94369C7.52959 6.07536 7.52821 7.26714 7.82988 8.39951L7.8791 8.58271L0.127148 16.3319C-0.0423828 16.5015 -0.0423828 16.7804 0.127148 16.9499L3.99355 20.8163C4.16309 20.9858 4.44199 20.9858 4.61152 20.8163L12.358 13.0698L12.5412 13.119C14.8299 13.7288 17.2881 13.0944 18.9943 11.3882C21.1654 9.21982 21.5674 5.87568 20.0334 3.27803Z" fill="var(--fill-0, #212529)" id="Vector"/>
</svg>