<?xml version="1.0" encoding="utf-8"?>
<svg xmlns="http://www.w3.org/2000/svg" fill="none" preserveAspectRatio="xMidYMid meet" width="28" height="28" viewBox="0 0 28 28">
<g clip-path="url(#clip0_0_234)" id="fi-sparkles-fill 2">
<path d="M11.3749 27.9998C11.0984 28.0012 10.828 27.9183 10.5999 27.7619C10.3718 27.6055 10.1969 27.3832 10.0985 27.1248L7.91974 21.4592C7.87562 21.345 7.80811 21.2414 7.72156 21.1549C7.63502 21.0683 7.53133 21.0007 7.41716 20.9566L1.74989 18.7763C1.49175 18.6772 1.26969 18.5021 1.11307 18.2742C0.956443 18.0464 0.872595 17.7763 0.872595 17.4998C0.872595 17.2233 0.956443 16.9533 1.11307 16.7254C1.26969 16.4975 1.49175 16.3225 1.74989 16.2235L7.41552 14.0447C7.52969 14.0005 7.63337 13.9331 7.71991 13.8465C7.80647 13.7599 7.87397 13.6562 7.9181 13.5421L10.0985 7.87485C10.1976 7.6167 10.3726 7.39465 10.6005 7.23802C10.8284 7.0814 11.0984 6.99755 11.3749 6.99755C11.6514 6.99755 11.9215 7.0814 12.1493 7.23802C12.3772 7.39465 12.5522 7.6167 12.6513 7.87485L14.8301 13.5405C14.8742 13.6546 14.9417 13.7583 15.0282 13.8449C15.1147 13.9314 15.2185 13.9989 15.3327 14.0431L20.9655 16.2103C21.2341 16.3099 21.4656 16.4898 21.6282 16.7257C21.791 16.9615 21.8771 17.2417 21.8749 17.5283C21.8707 17.8 21.785 18.0641 21.6291 18.2867C21.4731 18.5092 21.2539 18.6798 20.9999 18.7763L15.3343 20.955C15.2201 20.9991 15.1164 21.0667 15.0298 21.1532C14.9434 21.2397 14.8758 21.3434 14.8317 21.4576L12.6513 27.1248C12.5529 27.3832 12.378 27.6055 12.1499 27.7619C11.9218 27.9183 11.6514 28.0012 11.3749 27.9998ZM4.81239 9.62485C4.65027 9.62484 4.49197 9.57572 4.35832 9.48395C4.22467 9.39219 4.12196 9.26208 4.06372 9.11079L3.14169 6.71329C3.12171 6.66085 3.09086 6.61324 3.05118 6.57356C3.01152 6.53388 2.96389 6.50303 2.91146 6.48305L0.513959 5.56102C0.362682 5.50277 0.232602 5.40004 0.140855 5.2664C0.0491082 5.13276 0 4.97446 0 4.81235C0 4.65024 0.0491082 4.49193 0.140855 4.35829C0.232602 4.22465 0.362682 4.12194 0.513959 4.06367L2.91146 3.14165C2.96385 3.12157 3.01141 3.0907 3.05108 3.05103C3.09074 3.01136 3.12161 2.9638 3.14169 2.91142L4.05552 0.53524C4.10706 0.395351 4.19574 0.272149 4.31203 0.178879C4.42834 0.085608 4.56786 0.0257937 4.7156 0.00586439C4.89298 -0.0156988 5.07248 0.0225708 5.22564 0.114605C5.3788 0.206639 5.49684 0.347168 5.56107 0.513911L6.4831 2.91142C6.50317 2.9638 6.53404 3.01136 6.57371 3.05103C6.61338 3.0907 6.66095 3.12157 6.71334 3.14165L9.11084 4.06367C9.26211 4.12194 9.39219 4.22465 9.48394 4.35829C9.57569 4.49193 9.62479 4.65024 9.62479 4.81235C9.62479 4.97446 9.57569 5.13276 9.48394 5.2664C9.39219 5.40004 9.26211 5.50277 9.11084 5.56102L6.71334 6.48305C6.6609 6.50303 6.61328 6.53388 6.57361 6.57356C6.53393 6.61324 6.50308 6.66085 6.4831 6.71329L5.56107 9.11079C5.50283 9.26208 5.40011 9.39219 5.26647 9.48395C5.13283 9.57572 4.97451 9.62484 4.81239 9.62485ZM21.8749 13.9998C21.698 13.9998 21.5253 13.9461 21.3796 13.8459C21.2338 13.7458 21.1219 13.6038 21.0584 13.4388L19.8093 10.192C19.7874 10.1348 19.7537 10.0828 19.7103 10.0395C19.667 9.99612 19.615 9.96236 19.5578 9.9404L16.3109 8.69134C16.1461 8.62778 16.0042 8.51574 15.9041 8.36999C15.8041 8.22425 15.7506 8.05162 15.7506 7.87485C15.7506 7.69807 15.8041 7.52545 15.9041 7.3797C16.0042 7.23395 16.1461 7.12193 16.3109 7.05837L19.5578 5.8093C19.615 5.78733 19.667 5.75358 19.7103 5.71025C19.7537 5.66691 19.7874 5.61496 19.8093 5.55774L21.0491 2.33392C21.1057 2.18146 21.2025 2.0472 21.3294 1.94542C21.4562 1.84362 21.6083 1.77813 21.7693 1.75587C21.963 1.73243 22.1587 1.77432 22.3258 1.87489C22.4929 1.97545 22.6215 2.12892 22.6914 2.31094L23.9405 5.55774C23.9624 5.61496 23.9961 5.66691 24.0395 5.71025C24.0828 5.75358 24.1348 5.78733 24.192 5.8093L27.4388 7.05837C27.6038 7.12193 27.7455 7.23395 27.8456 7.3797C27.9456 7.52545 27.9992 7.69807 27.9992 7.87485C27.9992 8.05162 27.9456 8.22425 27.8456 8.36999C27.7455 8.51574 27.6038 8.62778 27.4388 8.69134L24.192 9.9404C24.1348 9.96236 24.0828 9.99612 24.0395 10.0395C23.9961 10.0828 23.9624 10.1348 23.9405 10.192L22.6914 13.4388C22.628 13.6038 22.516 13.7458 22.3702 13.8459C22.2244 13.9461 22.0518 13.9998 21.8749 13.9998Z" fill="var(--fill-0, #212529)" id="Vector"/>
</g>
<defs>
<clipPath id="clip0_0_234">
<rect fill="white" height="28" width="28"/>
</clipPath>
</defs>
</svg>