<?xml version="1.0" encoding="utf-8"?>
<svg xmlns="http://www.w3.org/2000/svg" fill="none" preserveAspectRatio="xMidYMid meet" width="28" height="28" viewBox="0 0 24.5014 21.4375">
<path d="M24.3831 20.125L13.0081 0.4375C12.8386 0.144922 12.546 0 12.2507 0C11.9554 0 11.6601 0.144922 11.4933 0.4375L0.118271 20.125C-0.218057 20.7102 0.203037 21.4375 0.875693 21.4375H23.6257C24.2983 21.4375 24.7194 20.7102 24.3831 20.125ZM11.3757 8.09375C11.3757 7.97344 11.4741 7.875 11.5944 7.875H12.9069C13.0273 7.875 13.1257 7.97344 13.1257 8.09375V13.125C13.1257 13.2453 13.0273 13.3438 12.9069 13.3438H11.5944C11.4741 13.3438 11.3757 13.2453 11.3757 13.125V8.09375ZM12.2507 17.7188C11.9072 17.7117 11.5802 17.5704 11.3398 17.325C11.0994 17.0796 10.9647 16.7498 10.9647 16.4062C10.9647 16.0627 11.0994 15.7329 11.3398 15.4875C11.5802 15.2421 11.9072 15.1008 12.2507 15.0938C12.5942 15.1008 12.9212 15.2421 13.1616 15.4875C13.402 15.7329 13.5367 16.0627 13.5367 16.4062C13.5367 16.7498 13.402 17.0796 13.1616 17.325C12.9212 17.5704 12.5942 17.7117 12.2507 17.7188Z" fill="var(--fill-0, #212529)" id="Vector"/>
</svg>