<?xml version="1.0" encoding="utf-8"?>
<svg xmlns="http://www.w3.org/2000/svg" fill="none" height="100%" overflow="visible" preserveAspectRatio="none" style="display: block;" viewBox="0 0 10.625 16.9181" width="100%">
<path d="M10.625 1.90438V0.178933C10.625 0.029379 10.4532 -0.0532104 10.3371 0.0383075L0.274586 7.89768C0.189091 7.96417 0.119911 8.04931 0.0723243 8.1466C0.0247373 8.24389 0 8.35076 0 8.45907C0 8.56737 0.0247373 8.67425 0.0723243 8.77154C0.119911 8.86883 0.189091 8.95396 0.274586 9.02045L10.3371 16.8798C10.4554 16.9713 10.625 16.8888 10.625 16.7392V15.0138C10.625 14.9044 10.5737 14.7995 10.4889 14.7325L2.45316 8.46018L10.4889 2.18563C10.5737 2.11866 10.625 2.01375 10.625 1.90438V1.90438Z" fill="var(--fill-0, white)" id="Vector"/>
</svg>