<?xml version="1.0" encoding="utf-8"?>
<svg xmlns="http://www.w3.org/2000/svg" fill="none" height="100%" overflow="visible" preserveAspectRatio="none" style="display: block;" viewBox="0 0 10.6251 16.9202" width="100%">
<path d="M10.3504 7.8975L0.287948 0.0381206C0.261655 0.0174201 0.230055 0.00455572 0.19678 0.00100459C0.163504 -0.00254654 0.129902 0.00335967 0.0998319 0.018045C0.0697619 0.0327304 0.044444 0.0555994 0.0267853 0.0840253C0.00912651 0.112451 -0.000156724 0.145282 2.00185e-06 0.178746V1.90419C2.00185e-06 2.01357 0.0513414 2.11848 0.136163 2.18544L8.17188 8.46L0.136163 14.7345C0.0491093 14.8015 2.00185e-06 14.9064 2.00185e-06 15.0158V16.7412C2.00185e-06 16.8908 0.171877 16.9734 0.287948 16.8819L10.3504 9.0225C10.436 8.95578 10.5052 8.87045 10.5527 8.77297C10.6003 8.6755 10.6251 8.56846 10.6251 8.46C10.6251 8.35153 10.6003 8.24449 10.5527 8.14702C10.5052 8.04955 10.436 7.96421 10.3504 7.8975Z" fill="var(--fill-0, white)" id="Vector"/>
</svg>