<?xml version="1.0" encoding="utf-8"?>
<svg xmlns="http://www.w3.org/2000/svg" fill="none" preserveAspectRatio="xMidYMid meet" width="28" height="28" viewBox="0 0 25.375 19.9375">
<path d="M24.4688 1.8125H19.9375V0.226562C19.9375 0.101953 19.8355 0 19.7109 0H18.125C18.0004 0 17.8984 0.101953 17.8984 0.226562V1.8125H13.707V0.226562C13.707 0.101953 13.6051 0 13.4805 0H11.8945C11.7699 0 11.668 0.101953 11.668 0.226562V1.8125H7.47656V0.226562C7.47656 0.101953 7.37461 0 7.25 0H5.66406C5.53945 0 5.4375 0.101953 5.4375 0.226562V1.8125H0.90625C0.40498 1.8125 0 2.21748 0 2.71875V19.0312C0 19.5325 0.40498 19.9375 0.90625 19.9375H24.4688C24.97 19.9375 25.375 19.5325 25.375 19.0312V2.71875C25.375 2.21748 24.97 1.8125 24.4688 1.8125ZM10.1953 14.9531C10.1953 15.0777 10.0934 15.1797 9.96875 15.1797H4.75781C4.6332 15.1797 4.53125 15.0777 4.53125 14.9531V13.5938C4.53125 13.4691 4.6332 13.3672 4.75781 13.3672H9.96875C10.0934 13.3672 10.1953 13.4691 10.1953 13.5938V14.9531ZM10.1953 11.1016C10.1953 11.2262 10.0934 11.3281 9.96875 11.3281H4.75781C4.6332 11.3281 4.53125 11.2262 4.53125 11.1016V9.74219C4.53125 9.61758 4.6332 9.51562 4.75781 9.51562H9.96875C10.0934 9.51562 10.1953 9.61758 10.1953 9.74219V11.1016ZM20.8013 8.51592L16.1284 14.9928C16.0867 15.0507 16.0318 15.0978 15.9683 15.1303C15.9048 15.1629 15.8344 15.1798 15.7631 15.1798C15.6917 15.1798 15.6214 15.1629 15.5579 15.1303C15.4943 15.0978 15.4395 15.0507 15.3978 14.9928L12.1636 10.5125C12.056 10.3624 12.1636 10.1528 12.3477 10.1528H13.9024C14.0469 10.1528 14.1828 10.2236 14.2678 10.3397L15.7631 12.41L18.6999 8.34033C18.7849 8.22139 18.9208 8.15342 19.0652 8.15342H20.6172C20.8013 8.15625 20.9089 8.36582 20.8013 8.51592Z" fill="var(--fill-0, #212529)" id="Vector"/>
</svg>