<?xml version="1.0" encoding="utf-8"?>
<svg xmlns="http://www.w3.org/2000/svg" fill="none" preserveAspectRatio="xMidYMid meet" width="28" height="28" viewBox="0 0 19.25 21.875">
<path d="M18.375 5.46875H14.6562V5.03125C14.6562 2.25313 12.4031 0 9.625 0C6.84688 0 4.59375 2.25313 4.59375 5.03125V5.46875H0.875C0.391016 5.46875 0 5.85977 0 6.34375V21C0 21.484 0.391016 21.875 0.875 21.875H18.375C18.859 21.875 19.25 21.484 19.25 21V6.34375C19.25 5.85977 18.859 5.46875 18.375 5.46875ZM12.6875 5.46875H6.5625V5.03125C6.5625 3.33867 7.93242 1.96875 9.625 1.96875C11.3176 1.96875 12.6875 3.33867 12.6875 5.03125V5.46875Z" fill="var(--fill-0, #212529)" id="Vector"/>
</svg>