<?xml version="1.0" encoding="utf-8"?>
<svg xmlns="http://www.w3.org/2000/svg" fill="none" preserveAspectRatio="xMidYMid meet" width="28" height="28" viewBox="0 0 21.875 21.875">
<path d="M21.0547 4.37773V0.875C21.0547 0.391016 20.6637 0 20.1797 0H1.69533C1.21135 0 0.820329 0.391016 0.820329 0.875V4.37773C0.363689 4.40508 1.6942e-05 4.78516 1.6942e-05 5.25V8.85117C-0.00173417 9.51301 0.132277 10.1682 0.393767 10.7762C0.511345 11.0551 0.656267 11.3176 0.820329 11.5664V21C0.820329 21.4813 1.21135 21.875 1.69533 21.875H9.18752V17.0625H12.6875V21.875H20.1797C20.6637 21.875 21.0547 21.484 21.0547 21V11.5664C21.2213 11.3169 21.3642 11.0524 21.4813 10.7762C21.741 10.1664 21.875 9.51836 21.875 8.85117V5.25C21.875 4.78516 21.5113 4.40508 21.0547 4.37773ZM19.086 19.909H14.4375V16.1875C14.4375 15.7035 14.0465 15.3125 13.5625 15.3125H8.31252C7.82853 15.3125 7.43752 15.7035 7.43752 16.1875V19.909H2.78908V13.2863C2.86838 13.3246 2.95041 13.3629 3.03517 13.3957C3.64494 13.6527 4.29299 13.7812 4.96017 13.7812C5.62736 13.7812 6.27267 13.6527 6.88517 13.3957C7.26252 13.2371 7.61799 13.0348 7.94338 12.7914C7.94884 12.7887 7.95431 12.7887 7.95978 12.7914C8.28618 13.0358 8.64163 13.2388 9.01799 13.3957C9.62775 13.6527 10.2758 13.7812 10.943 13.7812C11.6102 13.7812 12.2555 13.6527 12.868 13.3957C13.2453 13.2371 13.6008 13.0348 13.9262 12.7914C13.9317 12.7887 13.9371 12.7887 13.9426 12.7914C14.269 13.0358 14.6244 13.2388 15.0008 13.3957C15.6106 13.6527 16.2586 13.7812 16.9258 13.7812C17.593 13.7812 18.2383 13.6527 18.8508 13.3957C18.9328 13.3602 19.0149 13.3246 19.0969 13.2863V19.909H19.086ZM19.086 4.375H2.78908V1.96875H19.086V4.375Z" fill="var(--fill-0, #212529)" id="Vector"/>
</svg>