<?xml version="1.0" encoding="utf-8"?>
<svg xmlns="http://www.w3.org/2000/svg" fill="none" preserveAspectRatio="xMidYMid meet" width="28" height="28" viewBox="0 0 22.5312 24.5">
<path d="M13.2344 7.875H9.29688C8.81289 7.875 8.42188 8.26602 8.42188 8.75V23.625C8.42188 24.109 8.81289 24.5 9.29688 24.5H13.2344C13.7184 24.5 14.1094 24.109 14.1094 23.625V8.75C14.1094 8.26602 13.7184 7.875 13.2344 7.875ZM21.6562 0H17.7188C17.2348 0 16.8438 0.391016 16.8438 0.875V23.625C16.8438 24.109 17.2348 24.5 17.7188 24.5H21.6562C22.1402 24.5 22.5312 24.109 22.5312 23.625V0.875C22.5312 0.391016 22.1402 0 21.6562 0ZM4.8125 15.75H0.875C0.391016 15.75 0 16.141 0 16.625V23.625C0 24.109 0.391016 24.5 0.875 24.5H4.8125C5.29648 24.5 5.6875 24.109 5.6875 23.625V16.625C5.6875 16.141 5.29648 15.75 4.8125 15.75Z" fill="var(--fill-0, #212529)" id="Vector"/>
</svg>