<?xml version="1.0" encoding="utf-8"?>
<svg xmlns="http://www.w3.org/2000/svg" fill="none" preserveAspectRatio="xMidYMid meet" width="28" height="28" viewBox="0 0 20.6896 24.4933">
<path d="M9.51081 19.8524L19.8522 9.50824C19.8987 9.46176 19.9206 9.39887 19.9151 9.33598L19.2178 1.09457C19.1987 0.881292 19.0319 0.714495 18.8186 0.695354L10.5772 0.000823071C10.5143 -0.00464568 10.4487 0.0172292 10.405 0.0637136L0.063547 10.4051C0.0228371 10.4462 0 10.5018 0 10.5596C0 10.6175 0.0228371 10.673 0.063547 10.7141L9.20183 19.8524C9.28659 19.9399 9.42605 19.9399 9.51081 19.8524ZM12.8659 5.26723C13.3772 4.7559 14.2085 4.7559 14.7225 5.26723C15.2339 5.77856 15.2339 6.60981 14.7225 7.12387C14.2112 7.6352 13.38 7.6352 12.8659 7.12387C12.3546 6.61254 12.3546 5.78129 12.8659 5.26723ZM20.626 13.0028L19.5432 11.9227C19.5021 11.882 19.4466 11.8591 19.3887 11.8591C19.3309 11.8591 19.2754 11.882 19.2343 11.9227L9.33581 21.802L2.83894 15.3215C2.79782 15.2808 2.7423 15.258 2.68445 15.258C2.62659 15.258 2.57107 15.2808 2.52995 15.3215L1.44714 16.4016C1.40643 16.4427 1.38359 16.4982 1.38359 16.5561C1.38359 16.614 1.40643 16.6695 1.44714 16.7106L8.09714 23.3496L9.17995 24.4297C9.26472 24.5145 9.40417 24.5145 9.48894 24.4297L20.626 13.3118C20.7108 13.227 20.7108 13.0875 20.626 13.0028Z" fill="var(--fill-0, #212529)" id="Vector"/>
</svg>