<?xml version="1.0" encoding="utf-8"?>
<svg xmlns="http://www.w3.org/2000/svg" fill="none" preserveAspectRatio="xMidYMid meet" width="28" height="28" viewBox="0 0 24.5 19.25">
<path d="M23.625 0H0.875C0.391016 0 0 0.391016 0 0.875V18.375C0 18.859 0.391016 19.25 0.875 19.25H23.625C24.109 19.25 24.5 18.859 24.5 18.375V0.875C24.5 0.391016 24.109 0 23.625 0ZM21.1012 5.31562L12.9801 13.4422C12.939 13.4829 12.8834 13.5057 12.8256 13.5057C12.7677 13.5057 12.7122 13.4829 12.6711 13.4422L9.54023 10.3113L4.82344 15.0309C4.78232 15.0716 4.7268 15.0944 4.66895 15.0944C4.61109 15.0944 4.55557 15.0716 4.51445 15.0309L3.5082 14.0246C3.46749 13.9835 3.44466 13.928 3.44466 13.8701C3.44466 13.8123 3.46749 13.7567 3.5082 13.7156L9.38438 7.83672C9.46914 7.75195 9.60859 7.75195 9.69336 7.83672L12.8242 10.9648L19.7832 4.00312C19.868 3.91836 20.0074 3.91836 20.0922 4.00312L21.0984 5.00938C21.1859 5.09141 21.1859 5.23086 21.1012 5.31562Z" fill="var(--fill-0, #212529)" id="Vector"/>
</svg>