<?xml version="1.0" encoding="utf-8"?>
<svg xmlns="http://www.w3.org/2000/svg" fill="none" preserveAspectRatio="xMidYMid meet" width="28" height="28" viewBox="0 0 24.5 17.5">
<path d="M14.875 0C15.3582 0 15.75 0.391754 15.75 0.875V5.25H20.5301C20.6746 5.25 20.8168 5.28578 20.9441 5.35414C21.0714 5.4225 21.1797 5.52131 21.2595 5.64175L24.3544 10.3133C24.4494 10.4566 24.5 10.6247 24.5 10.7966V13.125C24.5 13.6082 24.1082 14 23.625 14H21C21 15.933 19.433 17.5 17.5 17.5C15.567 17.5 14 15.933 14 14H8.75C8.75 15.933 7.18298 17.5 5.25 17.5C3.31702 17.5 1.75 15.933 1.75 14H0.875C0.391754 14 0 13.6082 0 13.125V0.875C0 0.391754 0.391754 0 0.875 0H14.875ZM5.25 12.25C4.28351 12.25 3.5 13.0335 3.5 14C3.5 14.9665 4.28351 15.75 5.25 15.75L5.27893 15.7498C6.23208 15.7343 7 14.9568 7 14C7 13.0335 6.21649 12.25 5.25 12.25ZM17.5 12.25C16.5335 12.25 15.75 13.0335 15.75 14C15.75 14.9665 16.5335 15.75 17.5 15.75L17.5289 15.7498C18.4821 15.7343 19.25 14.9568 19.25 14C19.25 13.0335 18.4665 12.25 17.5 12.25ZM20.0602 7H15.75V10.9682C16.2649 10.6705 16.8625 10.5 17.5 10.5C18.7955 10.5 19.9266 11.2039 20.5318 12.25H22.75V11.0601L20.0602 7ZM11.9219 7H7.32812C7.14692 7 7 7.14692 7 7.32812V8.42188C7 8.60308 7.14692 8.75 7.32812 8.75H11.9219C12.1031 8.75 12.25 8.60308 12.25 8.42188V7.32812C12.25 7.14692 12.1031 7 11.9219 7ZM6.67188 3.5H3.82812C3.64692 3.5 3.5 3.64692 3.5 3.82812V4.92188C3.5 5.10308 3.64692 5.25 3.82812 5.25H6.67188C6.85308 5.25 7 5.10308 7 4.92188V3.82812C7 3.64692 6.85308 3.5 6.67188 3.5Z" fill="var(--fill-0, #212529)" id="Vector"/>
</svg>