<?xml version="1.0" encoding="utf-8"?>
<svg xmlns="http://www.w3.org/2000/svg" fill="none" preserveAspectRatio="xMidYMid meet" width="28" height="28" viewBox="0 0 19.25 24.5">
<path d="M18.375 0H0.875C0.391016 0 0 0.391016 0 0.875V15.3398C0 15.3234 0.0109375 15.3125 0.0273438 15.3125H6.02383L6.16602 15.9879C6.49688 17.623 7.95156 18.8125 9.625 18.8125C11.2984 18.8125 12.7531 17.623 13.0813 15.9879L13.2234 15.3125H19.2227C19.2391 15.3125 19.25 15.3234 19.25 15.3398V0.875C19.25 0.391016 18.859 0 18.375 0ZM15.0938 11.7305C15.0938 11.8508 14.9953 11.9492 14.875 11.9492H4.375C4.25469 11.9492 4.15625 11.8508 4.15625 11.7305V10.418C4.15625 10.2977 4.25469 10.1992 4.375 10.1992H14.875C14.9953 10.1992 15.0938 10.2977 15.0938 10.418V11.7305ZM15.0938 7.35547C15.0938 7.47578 14.9953 7.57422 14.875 7.57422H4.375C4.25469 7.57422 4.15625 7.47578 4.15625 7.35547V6.04297C4.15625 5.92266 4.25469 5.82422 4.375 5.82422H14.875C14.9953 5.82422 15.0938 5.92266 15.0938 6.04297V7.35547ZM19.2227 17.0352H14.6043C14.2871 17.932 13.7293 18.7387 12.9883 19.3512C12.0449 20.1332 10.85 20.5625 9.625 20.5625C8.4 20.5625 7.20508 20.1305 6.26172 19.3512C5.52369 18.7394 4.96523 17.939 4.6457 17.0352H0.0273438C0.0109375 17.0352 0 17.0242 0 17.0078V23.625C0 24.109 0.391016 24.5 0.875 24.5H18.375C18.859 24.5 19.25 24.109 19.25 23.625V17.0078C19.25 17.0242 19.2391 17.0352 19.2227 17.0352Z" fill="var(--fill-0, #212529)" id="Vector"/>
</svg>