<?xml version="1.0" encoding="utf-8"?>
<svg xmlns="http://www.w3.org/2000/svg" fill="none" preserveAspectRatio="xMidYMid meet" width="28" height="28" viewBox="0 0 21.875 21.875">
<path d="M15.4219 13.9727C14.9078 13.9727 14.4922 14.3883 14.4922 14.9023C14.4922 15.4164 14.9078 15.832 15.4219 15.832C15.9359 15.832 16.3516 15.4164 16.3516 14.9023C16.3516 14.3883 15.9359 13.9727 15.4219 13.9727ZM21 1.53125H15.2031C15.2031 0.686328 14.5168 0 13.6719 0H11.4844C10.6395 0 9.95312 0.686328 9.95312 1.53125H4.15625C3.67227 1.53125 3.28125 1.92227 3.28125 2.40625V7.875H0.875C0.391016 7.875 0 8.26602 0 8.75V21C0 21.484 0.391016 21.875 0.875 21.875H10.0625C10.5465 21.875 10.9375 21.484 10.9375 21V20.5625H21C21.484 20.5625 21.875 20.1715 21.875 19.6875V2.40625C21.875 1.92227 21.484 1.53125 21 1.53125ZM9.1875 20.125H1.75V13.7812H9.1875V20.125ZM9.1875 12.0312H1.75V9.625H9.1875V12.0312ZM9.73438 4.59375V3.28125H11.7031V1.75H13.4531V3.28125H15.4219V4.59375H9.73438ZM14.6562 9.1875V10.7188C14.6562 10.8391 14.5578 10.9375 14.4375 10.9375H13.125C13.0047 10.9375 12.9062 10.8391 12.9062 10.7188V9.1875C12.9062 9.06719 13.0047 8.96875 13.125 8.96875H14.4375C14.5578 8.96875 14.6562 9.06719 14.6562 9.1875ZM15.4219 17.418C14.0328 17.418 12.9062 16.2914 12.9062 14.9023C12.9062 13.5133 14.0328 12.3867 15.4219 12.3867C16.8109 12.3867 17.9375 13.5133 17.9375 14.9023C17.9375 16.2914 16.8109 17.418 15.4219 17.418ZM17.9375 10.7188C17.9375 10.8391 17.8391 10.9375 17.7188 10.9375H16.4062C16.2859 10.9375 16.1875 10.8391 16.1875 10.7188V8.09375C16.1875 7.97344 16.2859 7.875 16.4062 7.875H17.7188C17.8391 7.875 17.9375 7.97344 17.9375 8.09375V10.7188ZM15.4219 12.3867C14.0328 12.3867 12.9062 13.5133 12.9062 14.9023C12.9062 16.2914 14.0328 17.418 15.4219 17.418C16.8109 17.418 17.9375 16.2914 17.9375 14.9023C17.9375 13.5133 16.8109 12.3867 15.4219 12.3867ZM15.4219 15.832C14.9078 15.832 14.4922 15.4164 14.4922 14.9023C14.4922 14.3883 14.9078 13.9727 15.4219 13.9727C15.9359 13.9727 16.3516 14.3883 16.3516 14.9023C16.3516 15.4164 15.9359 15.832 15.4219 15.832Z" fill="var(--fill-0, #212529)" id="Vector"/>
</svg>