<?xml version="1.0" encoding="utf-8"?>
<svg xmlns="http://www.w3.org/2000/svg" fill="none" preserveAspectRatio="xMidYMid meet" width="28" height="28" viewBox="0 0 20.6026 24.2812">
<path d="M10.2999 4.8125C15.1173 4.8125 19.0225 8.71773 19.0225 13.5352V19.9062C19.0225 20.1383 18.9303 20.3609 18.7663 20.525C18.6022 20.6891 18.3796 20.7812 18.1475 20.7812H2.45222C2.22016 20.7812 1.9976 20.6891 1.8335 20.525C1.66941 20.3609 1.57722 20.1383 1.57722 19.9062V13.5352C1.57722 8.71773 5.48246 4.8125 10.2999 4.8125ZM9.53425 0H11.0655C11.1235 0 11.1792 0.0230469 11.2202 0.0640704C11.2612 0.105094 11.2843 0.160734 11.2843 0.21875V2.84375C11.2843 2.90177 11.2612 2.95741 11.2202 2.99843C11.1792 3.03945 11.1235 3.0625 11.0655 3.0625H9.53425C9.47624 3.0625 9.4206 3.03945 9.37957 2.99843C9.33855 2.95741 9.3155 2.90177 9.3155 2.84375V0.21875C9.3155 0.160734 9.33855 0.105094 9.37957 0.0640704C9.4206 0.0230469 9.47624 0 9.53425 0ZM1.14656 3.38133C1.16687 3.36099 1.191 3.34485 1.21756 3.33385C1.24411 3.32284 1.27258 3.31717 1.30132 3.31717C1.33007 3.31717 1.35854 3.32284 1.38509 3.33385C1.41165 3.34485 1.43577 3.36099 1.45609 3.38133L3.31218 5.23742C3.35318 5.27844 3.3762 5.33406 3.3762 5.39205C3.3762 5.45004 3.35318 5.50566 3.31218 5.54668L2.22937 6.62949C2.18835 6.67049 2.13273 6.69351 2.07474 6.69351C2.01675 6.69351 1.96113 6.67049 1.92011 6.62949L0.0640197 4.7734C0.0230272 4.73238 0 4.67676 0 4.61877C0 4.56078 0.0230272 4.50516 0.0640197 4.46414L1.14683 3.38133H1.14656ZM19.4559 3.38133L20.5387 4.46414C20.5797 4.50515 20.6026 4.56071 20.6026 4.61863C20.6026 4.67656 20.5797 4.73212 20.5387 4.77312L18.6827 6.62977C18.6623 6.6501 18.6382 6.66624 18.6117 6.67725C18.5851 6.68826 18.5566 6.69392 18.5279 6.69392C18.4991 6.69392 18.4707 6.68826 18.4441 6.67725C18.4176 6.66624 18.3934 6.6501 18.3731 6.62977L17.2903 5.54695C17.27 5.52664 17.2538 5.50251 17.2428 5.47596C17.2318 5.4494 17.2262 5.42093 17.2262 5.39219C17.2262 5.36344 17.2318 5.33498 17.2428 5.30842C17.2538 5.28186 17.27 5.25774 17.2903 5.23742L19.1467 3.38133C19.1877 3.34034 19.2433 3.31731 19.3013 3.31731C19.3593 3.31731 19.4149 3.34034 19.4559 3.38133ZM1.54988 22.5312H19.0499C19.2819 22.5312 19.5045 22.6234 19.6686 22.7875C19.8327 22.9516 19.9249 23.1742 19.9249 23.4062V24.0625C19.9249 24.1205 19.9018 24.1762 19.8608 24.2172C19.8198 24.2582 19.7641 24.2812 19.7061 24.2812H0.893629C0.835613 24.2812 0.779973 24.2582 0.738949 24.2172C0.697926 24.1762 0.674879 24.1205 0.674879 24.0625V23.4062C0.674879 23.1742 0.767066 22.9516 0.931161 22.7875C1.09526 22.6234 1.31781 22.5312 1.54988 22.5312ZM5.59675 13.8633V20.7812H7.34675V13.8633H5.59675Z" fill="var(--fill-0, #212529)" id="Vector"/>
</svg>