<?xml version="1.0" encoding="utf-8"?>
<svg xmlns="http://www.w3.org/2000/svg" fill="none" preserveAspectRatio="xMidYMid meet" width="28" height="28" viewBox="0 0 21.875 21.875">
<path d="M21 0H0.875C0.391016 0 0 0.391016 0 0.875V21C0 21.484 0.391016 21.875 0.875 21.875H21C21.484 21.875 21.875 21.484 21.875 21V0.875C21.875 0.391016 21.484 0 21 0ZM7.98438 15.6133V17.7188C7.98438 17.8391 7.88594 17.9375 7.76562 17.9375H6.45312C6.33281 17.9375 6.23438 17.8391 6.23438 17.7188V15.6133C5.09414 15.2414 4.26562 14.1695 4.26562 12.9062C4.26562 11.643 5.09414 10.5684 6.23438 10.1992V4.15625C6.23438 4.03594 6.33281 3.9375 6.45312 3.9375H7.76562C7.88594 3.9375 7.98438 4.03594 7.98438 4.15625V10.1992C9.12461 10.5711 9.95312 11.643 9.95312 12.9062C9.95312 14.1695 9.12461 15.2441 7.98438 15.6133ZM15.6297 11.6785C15.6352 11.6785 15.6379 11.6758 15.6406 11.6758V17.7188C15.6406 17.8391 15.5422 17.9375 15.4219 17.9375H14.1094C13.9891 17.9375 13.8906 17.8391 13.8906 17.7188V11.6758C13.8961 11.6758 13.8988 11.6785 13.9016 11.6785C12.7531 11.3121 11.9219 10.2375 11.9219 8.96875C11.9219 7.7 12.7531 6.62539 13.9016 6.25898C13.8961 6.25898 13.8934 6.26172 13.8906 6.26172V4.15625C13.8906 4.03594 13.9891 3.9375 14.1094 3.9375H15.4219C15.5422 3.9375 15.6406 4.03594 15.6406 4.15625V6.26172C15.6352 6.26172 15.6324 6.25898 15.6297 6.25898C16.7781 6.62539 17.6094 7.7 17.6094 8.96875C17.6094 10.2375 16.7781 11.3121 15.6297 11.6785ZM13.7812 8.96875C13.7812 9.22982 13.885 9.4802 14.0696 9.66481C14.2542 9.84941 14.5046 9.95312 14.7656 9.95312C15.0267 9.95312 15.2771 9.84941 15.4617 9.66481C15.6463 9.4802 15.75 9.22982 15.75 8.96875C15.75 8.70768 15.6463 8.4573 15.4617 8.27269C15.2771 8.08809 15.0267 7.98438 14.7656 7.98438C14.5046 7.98438 14.2542 8.08809 14.0696 8.27269C13.885 8.4573 13.7812 8.70768 13.7812 8.96875ZM7.96797 12.4277L7.92695 12.3621C7.92695 12.3594 7.92422 12.3594 7.92422 12.3566L7.89961 12.3238C7.89687 12.3211 7.89414 12.3184 7.89414 12.3156C7.8668 12.2801 7.83945 12.2473 7.80664 12.2172L7.80117 12.2117C7.79023 12.2008 7.7793 12.1898 7.76836 12.1816C7.74648 12.1598 7.72187 12.1406 7.69727 12.1242H7.69453L7.66172 12.0996C7.65898 12.0969 7.65352 12.0941 7.65078 12.0914C7.61797 12.0695 7.58242 12.0477 7.54414 12.0312C7.53867 12.0285 7.53047 12.0258 7.525 12.0203C7.51406 12.0148 7.50586 12.0121 7.49492 12.0066C7.48672 12.0039 7.47578 11.9984 7.46758 11.9957C7.45391 11.9902 7.44023 11.9848 7.42656 11.982C7.41563 11.9793 7.40195 11.9738 7.39102 11.9711L7.36641 11.9629L7.32812 11.9547C7.32266 11.952 7.31445 11.952 7.30898 11.9492C7.28984 11.9465 7.2707 11.941 7.25156 11.9383C7.24609 11.9383 7.24063 11.9383 7.23516 11.9355C7.21875 11.9328 7.20508 11.9328 7.18867 11.9301C7.1832 11.9301 7.17773 11.9301 7.16953 11.9273C7.14766 11.9273 7.12852 11.9246 7.10664 11.9246C7.08477 11.9246 7.06563 11.9246 7.04375 11.9273C7.03828 11.9273 7.03281 11.9273 7.02461 11.9301C7.0082 11.9301 6.9918 11.9328 6.97813 11.9355C6.97266 11.9355 6.96719 11.9355 6.96172 11.9383C6.94258 11.941 6.92344 11.9437 6.9043 11.9492C6.89883 11.952 6.89062 11.952 6.88516 11.9547L6.84687 11.9629L6.82227 11.9711C6.81133 11.9738 6.79766 11.9793 6.78672 11.982C6.77305 11.9875 6.75938 11.993 6.7457 11.9957C6.7375 11.9984 6.72656 12.0039 6.71836 12.0066C6.70742 12.0121 6.69922 12.0148 6.68828 12.0203C6.68281 12.023 6.67461 12.0258 6.66914 12.0312C6.63359 12.0504 6.59805 12.0695 6.5625 12.0914C6.55977 12.0941 6.5543 12.0969 6.55156 12.0996L6.51875 12.1242H6.51602C6.49141 12.1434 6.4668 12.1625 6.44492 12.1816C6.43398 12.1926 6.42305 12.2008 6.41211 12.2117L6.40664 12.2172C6.37604 12.2487 6.34685 12.2815 6.31914 12.3156C6.31641 12.3184 6.31367 12.3211 6.31367 12.3238L6.28906 12.3566C6.28906 12.3594 6.28633 12.3594 6.28633 12.3621L6.24531 12.4277C6.24258 12.4332 6.23984 12.4359 6.23711 12.4414C6.16328 12.5809 6.11953 12.7395 6.11953 12.9062C6.11953 13.073 6.16328 13.2344 6.23711 13.3711C6.23984 13.3766 6.24258 13.3793 6.24531 13.3848L6.28633 13.4504C6.28633 13.4531 6.28906 13.4531 6.28906 13.4559L6.31367 13.4887C6.31641 13.4914 6.31914 13.4941 6.31914 13.4969C6.34648 13.5324 6.37383 13.5652 6.40664 13.5953L6.41211 13.6008C6.42305 13.6117 6.43398 13.6227 6.44492 13.6309C6.4668 13.6527 6.49141 13.6719 6.51602 13.6883H6.51875L6.55156 13.7129C6.5543 13.7156 6.55977 13.7184 6.5625 13.7211C6.59531 13.743 6.63086 13.7648 6.66914 13.7812C6.67461 13.784 6.68281 13.7867 6.68828 13.7922C6.69922 13.7977 6.70742 13.8004 6.71836 13.8059C6.72656 13.8086 6.7375 13.8141 6.7457 13.8168C6.75938 13.8223 6.77305 13.8277 6.78672 13.8305C6.79766 13.8332 6.81133 13.8387 6.82227 13.8414L6.84687 13.8496L6.88516 13.8578C6.89062 13.8605 6.89883 13.8605 6.9043 13.8633C6.92344 13.866 6.94258 13.8715 6.96172 13.8742C6.96719 13.8742 6.97266 13.8742 6.97813 13.877C6.99453 13.8797 7.0082 13.8797 7.02461 13.8824C7.03008 13.8824 7.03555 13.8824 7.04375 13.8852C7.06563 13.8852 7.08477 13.8879 7.10664 13.8879C7.12852 13.8879 7.14766 13.8879 7.16953 13.8852C7.175 13.8852 7.18047 13.8852 7.18867 13.8824C7.20508 13.8824 7.22148 13.8797 7.23516 13.877C7.24063 13.877 7.24609 13.877 7.25156 13.8742C7.2707 13.8715 7.28984 13.8688 7.30898 13.8633C7.31445 13.8605 7.32266 13.8605 7.32812 13.8578L7.36641 13.8496L7.39102 13.8414C7.40195 13.8387 7.41563 13.8332 7.42656 13.8305C7.44023 13.825 7.45391 13.8195 7.46758 13.8168C7.47578 13.8141 7.48672 13.8086 7.49492 13.8059C7.50586 13.8004 7.51406 13.7977 7.525 13.7922C7.53047 13.7895 7.53867 13.7867 7.54414 13.7812C7.57969 13.7621 7.61523 13.743 7.65078 13.7211C7.65352 13.7184 7.65898 13.7156 7.66172 13.7129L7.69453 13.6883H7.69727C7.72187 13.6691 7.74648 13.65 7.76836 13.6309C7.7793 13.6199 7.79023 13.6117 7.80117 13.6008L7.80664 13.5953C7.83672 13.5652 7.8668 13.5297 7.89414 13.4969C7.89688 13.4941 7.89961 13.4914 7.89961 13.4887L7.92422 13.4559C7.92422 13.4531 7.92695 13.4531 7.92695 13.4504L7.96797 13.3848C7.9707 13.3793 7.97344 13.3766 7.97617 13.3711C8.05 13.2316 8.09375 13.073 8.09375 12.9062C8.09375 12.7395 8.05 12.5781 7.97617 12.4414C7.97344 12.4359 7.9707 12.4305 7.96797 12.4277Z" fill="var(--fill-0, #212529)" id="Vector"/>
</svg>